<svg width="860" height="720" viewBox="0 0 860 720" xmlns="http://www.w3.org/2000/svg">
<defs>
<marker id="arrow" viewBox="0 0 10 10" refX="8" refY="5" markerWidth="6" markerHeight="6" orient="auto-start-reverse">
<path d="M2 1L8 5L2 9" fill="none" stroke="context-stroke" stroke-width="1.5" stroke-linecap="round" stroke-linejoin="round"/>
</marker>
<style>
svg { font-family: -apple-system, BlinkMacSystemFont, "Segoe UI", Helvetica, Arial, sans-serif; }
.th { font-size: 13px; font-weight: 600; }
.ts { font-size: 11px; font-weight: 400; }
.c-gray rect   { fill: #f6f8fa; stroke: #8b949e; }
.c-gray .th    { fill: #24292f; }
.c-gray .ts    { fill: #57606a; }
.c-purple rect { fill: #f3f0ff; stroke: #8250df; }
.c-purple .th  { fill: #512a97; }
.c-purple .ts  { fill: #6639ba; }
.c-indigo rect { fill: #e8e0ff; stroke: #6639ba; }
.c-indigo .th  { fill: #3d1e8e; }
.c-indigo .ts  { fill: #512a97; }
.c-blue rect   { fill: #ddf4ff; stroke: #0969da; }
.c-blue .th    { fill: #0550ae; }
.c-blue .ts    { fill: #0969da; }
.c-coral rect  { fill: #fff0eb; stroke: #bc4c00; }
.c-coral .th   { fill: #7d2500; }
.c-coral .ts   { fill: #bc4c00; }
.c-teal rect   { fill: #dcfff5; stroke: #0e7a6e; }
.c-teal .th    { fill: #095c54; }
.c-teal .ts    { fill: #0e7a6e; }
.c-amber rect  { fill: #fff8e1; stroke: #9a6700; }
.c-amber .th   { fill: #5c3d00; }
.c-amber .ts   { fill: #9a6700; }
.c-green rect  { fill: #dafbe1; stroke: #1a7f37; }
.c-green .th   { fill: #0d4c1f; }
.c-green .ts   { fill: #1a7f37; }
.c-red rect    { fill: #ffebe9; stroke: #cf222e; }
.c-red .th     { fill: #82071e; }
.c-red .ts     { fill: #cf222e; }
line { stroke: #8b949e; stroke-width: 1; fill: none; }
</style>
</defs>

<!-- background -->
<rect width="860" height="720" fill="#ffffff"/>

<!-- User -->
<g class="c-gray">
  <rect x="350" y="16" width="160" height="36" rx="6" stroke-width="1"/>
  <text class="th" x="430" y="34" text-anchor="middle" dominant-baseline="central" fill="#24292f">User</text>
</g>

<!-- Arrow User -> Orchestrator -->
<line x1="430" y1="52" x2="430" y2="76" marker-end="url(#arrow)"/>

<!-- Orchestrator -->
<g class="c-purple">
  <rect x="270" y="76" width="320" height="48" rx="6" stroke-width="1"/>
  <text class="th" x="430" y="94" text-anchor="middle" dominant-baseline="central" fill="#512a97">Orchestrator</text>
  <text class="ts" x="430" y="112" text-anchor="middle" dominant-baseline="central" fill="#6639ba">opus · sponsor · user-facing front</text>
</g>

<!-- Arrows Orchestrator -> PM, cross-team -->
<line x1="430" y1="124" x2="430" y2="152" marker-end="url(#arrow)"/>
<line x1="530" y1="124" x2="698" y2="168" marker-end="url(#arrow)"/>

<!-- Project Manager -->
<g class="c-indigo">
  <rect x="270" y="152" width="320" height="48" rx="6" stroke-width="1"/>
  <text class="th" x="430" y="170" text-anchor="middle" dominant-baseline="central" fill="#3d1e8e">Project Manager</text>
  <text class="ts" x="430" y="188" text-anchor="middle" dominant-baseline="central" fill="#512a97">sonnet · planning · tracking · PMBOK</text>
</g>

<!-- Arrows PM -> Team Alpha, Team Beta -->
<line x1="350" y1="200" x2="195" y2="250" marker-end="url(#arrow)"/>
<line x1="510" y1="200" x2="510" y2="250" marker-end="url(#arrow)"/>

<!-- ===== Team Alpha ===== -->
<g class="c-blue">
  <rect x="30" y="250" width="260" height="252" rx="10" stroke-width="1"/>
</g>
<text class="th" x="160" y="272" text-anchor="middle" dominant-baseline="central" fill="#0550ae">Team Alpha</text>

<g class="c-blue">
  <rect x="50" y="284" width="220" height="40" rx="6" stroke-width="1"/>
  <text class="th" x="160" y="300" text-anchor="middle" dominant-baseline="central" fill="#0550ae">team-alpha-lead</text>
  <text class="ts" x="160" y="314" text-anchor="middle" dominant-baseline="central" fill="#0969da">sonnet</text>
</g>

<line x1="112" y1="324" x2="88"  y2="352" marker-end="url(#arrow)"/>
<line x1="160" y1="324" x2="160" y2="352" marker-end="url(#arrow)"/>
<line x1="208" y1="324" x2="232" y2="352" marker-end="url(#arrow)"/>

<g class="c-blue">
  <rect x="40" y="352" width="86" height="52" rx="6" stroke-width="1"/>
  <text class="th" x="83" y="370" text-anchor="middle" dominant-baseline="central" fill="#0550ae">Implementer</text>
  <text class="ts" x="83" y="386" text-anchor="middle" dominant-baseline="central" fill="#0969da">Generator</text>
</g>
<g class="c-blue">
  <rect x="117" y="352" width="86" height="52" rx="6" stroke-width="1"/>
  <text class="th" x="160" y="370" text-anchor="middle" dominant-baseline="central" fill="#0550ae">Evaluator</text>
  <text class="ts" x="160" y="386" text-anchor="middle" dominant-baseline="central" fill="#0969da">Verifier</text>
</g>
<g class="c-blue">
  <rect x="194" y="352" width="86" height="52" rx="6" stroke-width="1"/>
  <text class="th" x="237" y="370" text-anchor="middle" dominant-baseline="central" fill="#0550ae">Reviewer</text>
  <text class="ts" x="237" y="386" text-anchor="middle" dominant-baseline="central" fill="#0969da">Quality</text>
</g>

<rect x="50" y="424" width="220" height="36" rx="6" stroke-width="1" stroke-dasharray="4 3" fill="none" stroke="#0969da" opacity="0.5"/>
<text font-size="11" fill="#0969da" opacity="0.8" x="160" y="442" text-anchor="middle" dominant-baseline="central">+ add agent</text>

<!-- ===== Team Beta ===== -->
<g class="c-coral">
  <rect x="380" y="250" width="260" height="252" rx="10" stroke-width="1"/>
</g>
<text class="th" x="510" y="272" text-anchor="middle" dominant-baseline="central" fill="#7d2500">Team Beta</text>

<g class="c-coral">
  <rect x="400" y="284" width="220" height="40" rx="6" stroke-width="1"/>
  <text class="th" x="510" y="300" text-anchor="middle" dominant-baseline="central" fill="#7d2500">team-beta-lead</text>
  <text class="ts" x="510" y="314" text-anchor="middle" dominant-baseline="central" fill="#bc4c00">sonnet</text>
</g>

<line x1="462" y1="324" x2="438" y2="352" marker-end="url(#arrow)"/>
<line x1="510" y1="324" x2="510" y2="352" marker-end="url(#arrow)"/>
<line x1="558" y1="324" x2="582" y2="352" marker-end="url(#arrow)"/>

<g class="c-coral">
  <rect x="390" y="352" width="86" height="52" rx="6" stroke-width="1"/>
  <text class="th" x="433" y="370" text-anchor="middle" dominant-baseline="central" fill="#7d2500">Implementer</text>
  <text class="ts" x="433" y="386" text-anchor="middle" dominant-baseline="central" fill="#bc4c00">Generator</text>
</g>
<g class="c-coral">
  <rect x="467" y="352" width="86" height="52" rx="6" stroke-width="1"/>
  <text class="th" x="510" y="370" text-anchor="middle" dominant-baseline="central" fill="#7d2500">Evaluator</text>
  <text class="ts" x="510" y="386" text-anchor="middle" dominant-baseline="central" fill="#bc4c00">Verifier</text>
</g>
<g class="c-coral">
  <rect x="544" y="352" width="86" height="52" rx="6" stroke-width="1"/>
  <text class="th" x="587" y="370" text-anchor="middle" dominant-baseline="central" fill="#7d2500">Reviewer</text>
  <text class="ts" x="587" y="386" text-anchor="middle" dominant-baseline="central" fill="#bc4c00">Quality</text>
</g>

<rect x="400" y="424" width="220" height="36" rx="6" stroke-width="1" stroke-dasharray="4 3" fill="none" stroke="#bc4c00" opacity="0.5"/>
<text font-size="11" fill="#bc4c00" opacity="0.8" x="510" y="442" text-anchor="middle" dominant-baseline="central">+ add agent</text>

<!-- ===== Cross-team ===== -->
<g class="c-teal">
  <rect x="660" y="168" width="170" height="334" rx="10" stroke-width="1"/>
</g>
<text class="th" x="745" y="190" text-anchor="middle" dominant-baseline="central" fill="#095c54">Cross-team</text>

<g class="c-teal">
  <rect x="678" y="206" width="134" height="36" rx="6" stroke-width="1"/>
  <text class="th" x="745" y="224" text-anchor="middle" dominant-baseline="central" fill="#095c54">doc-manager</text>
</g>
<g class="c-teal">
  <rect x="678" y="252" width="134" height="36" rx="6" stroke-width="1"/>
  <text class="th" x="745" y="270" text-anchor="middle" dominant-baseline="central" fill="#095c54">release-manager</text>
</g>
<g class="c-teal">
  <rect x="678" y="298" width="134" height="36" rx="6" stroke-width="1"/>
  <text class="th" x="745" y="316" text-anchor="middle" dominant-baseline="central" fill="#095c54">explorer</text>
</g>

<rect x="678" y="350" width="134" height="36" rx="6" stroke-width="1" stroke-dasharray="4 3" fill="none" stroke="#0e7a6e" opacity="0.5"/>
<text font-size="11" fill="#0e7a6e" opacity="0.8" x="745" y="368" text-anchor="middle" dominant-baseline="central">+ add agent</text>

<!-- Add team placeholder -->
<rect x="30" y="516" width="800" height="44" rx="10" stroke-width="1" stroke-dasharray="5 4" fill="none" stroke="#8b949e" opacity="0.6"/>
<text font-size="11" fill="#57606a" x="430" y="538" text-anchor="middle" dominant-baseline="central">+ /dev-forge:team add  ·  teams &amp; report lines fully customizable</text>

<!-- ===== SQLite DB ===== -->
<g class="c-amber">
  <rect x="240" y="582" width="380" height="48" rx="6" stroke-width="1"/>
  <text class="th" x="430" y="600" text-anchor="middle" dominant-baseline="central" fill="#5c3d00">dev-forge.db (SQLite)</text>
  <text class="ts" x="430" y="616" text-anchor="middle" dominant-baseline="central" fill="#9a6700">messages · contracts · rules · learnings</text>
</g>

<!-- Arrows -> DB -->
<line x1="160" y1="502" x2="300" y2="582" marker-end="url(#arrow)"/>
<line x1="510" y1="502" x2="440" y2="582" marker-end="url(#arrow)"/>
<line x1="745" y1="502" x2="560" y2="582" marker-end="url(#arrow)"/>

<!-- ===== Bottom row ===== -->
<g class="c-teal">
  <rect x="30" y="654" width="180" height="52" rx="6" stroke-width="1"/>
  <text class="th" x="120" y="672" text-anchor="middle" dominant-baseline="central" fill="#095c54">Knowledge Wiki</text>
  <text class="ts" x="120" y="690" text-anchor="middle" dominant-baseline="central" fill="#0e7a6e">local / Obsidian</text>
</g>
<g class="c-green">
  <rect x="340" y="654" width="180" height="52" rx="6" stroke-width="1"/>
  <text class="th" x="430" y="672" text-anchor="middle" dominant-baseline="central" fill="#0d4c1f">Learnings</text>
  <text class="ts" x="430" y="690" text-anchor="middle" dominant-baseline="central" fill="#1a7f37">SQLite + Markdown</text>
</g>
<g class="c-red">
  <rect x="650" y="654" width="180" height="52" rx="6" stroke-width="1"/>
  <text class="th" x="740" y="670" text-anchor="middle" dominant-baseline="central" fill="#82071e">Bug Council</text>
  <text class="ts" x="740" y="686" text-anchor="middle" dominant-baseline="central" fill="#cf222e">Root Cause · Pattern</text>
  <text class="ts" x="740" y="700" text-anchor="middle" dominant-baseline="central" fill="#cf222e">Adversarial · opus</text>
</g>

<!-- Arrows DB -> bottom -->
<line x1="330" y1="630" x2="178" y2="654" marker-end="url(#arrow)"/>
<line x1="430" y1="630" x2="430" y2="654" marker-end="url(#arrow)"/>
<line x1="530" y1="630" x2="692" y2="654" marker-end="url(#arrow)"/>

</svg>
